<svg xmlns="http://www.w3.org/2000/svg" width="430" height="430" style="width:100%;height:100%;transform:translate3d(0,0,0);content-visibility:visible" viewBox="0 0 430 430"><defs><clipPath id="g"><path d="M0 0h430v430H0z"/></clipPath><clipPath id="k"><path d="M0 0h430v430H0z"/></clipPath><clipPath id="h"><path d="M0 0h430v430H0z"/></clipPath><filter id="a" width="100%" height="100%" x="0%" y="0%" filterUnits="objectBoundingBox"><feComponentTransfer in="SourceGraphic"><feFuncA tableValues="1.0 0.0" type="table"/></feComponentTransfer></filter><filter id="c" width="100%" height="100%" x="0%" y="0%" filterUnits="objectBoundingBox"><feComponentTransfer in="SourceGraphic"><feFuncA tableValues="1.0 0.0" type="table"/></feComponentTransfer></filter><filter id="e" width="100%" height="100%" x="0%" y="0%" filterUnits="objectBoundingBox"><feComponentTransfer in="SourceGraphic"><feFuncA tableValues="1.0 0.0" type="table"/></feComponentTransfer></filter><mask id="l" mask-type="alpha"><g filter="url(#a)"><path fill="#fff" d="M0 0h430v430H0z" opacity="0"/><use xmlns:ns1="http://www.w3.org/1999/xlink" ns1:href="#b"/></g></mask><mask id="j" mask-type="alpha"><g filter="url(#c)"><path fill="#fff" d="M0 0h430v430H0z" opacity="0"/><use xmlns:ns2="http://www.w3.org/1999/xlink" ns2:href="#d"/></g></mask><mask id="i" mask-type="alpha"><g filter="url(#e)"><path fill="#fff" d="M0 0h430v430H0z" opacity="0"/><use xmlns:ns3="http://www.w3.org/1999/xlink" ns3:href="#f"/></g></mask><g id="b" style="display:block"><path fill-opacity="0" stroke="#4BB3FD" stroke-linecap="round" stroke-linejoin="round" stroke-width="5" d="M331.761 275.855c0 53.376-43.27 96.645-96.646 96.645s-96.645-43.269-96.645-96.645 89.616-211.323 96.645-219.23c7.468 7.468 96.646 165.854 96.646 219.23" class="primary"/><path fill="#4BB3FD" d="M331.761 275.855c0 53.376-43.27 96.645-96.646 96.645s-96.645-43.269-96.645-96.645 89.616-211.323 96.645-219.23c7.468 7.468 96.646 165.854 96.646 219.23"/></g><g id="d" style="display:none"><path fill-opacity="0" stroke-linecap="round" stroke-linejoin="round" class="primary"/><path/></g><g id="f" style="display:none"><path/><path fill-opacity="0" stroke-linecap="round" stroke-linejoin="round" class="primary"/></g></defs><g clip-path="url(#g)"><g clip-path="url(#h)" style="display:none"><g style="display:none"><path class="primary"/><path fill="none" class="primary"/></g><g mask="url(#i)" style="mix-blend-mode:multiply;display:none"><path class="primary"/><path fill="none" class="primary"/></g><path fill="none" class="secondary" style="display:none"/><g style="display:none"><path fill="none" class="primary"/><path class="primary"/></g><g mask="url(#j)" style="mix-blend-mode:multiply;display:none"><path fill="none" class="primary"/><path class="primary"/></g><path fill="none" class="secondary" style="display:none"/><g style="display:none"><path class="primary"/><path fill="none" class="primary"/></g><g style="display:none"><path class="primary"/><path fill="none" class="primary"/></g><g style="display:none"><path class="primary"/><path fill="none" class="primary"/></g></g><g clip-path="url(#k)" style="display:block"><g style="display:block"><path fill="none" stroke="#4AB3FC" stroke-linecap="round" stroke-linejoin="round" stroke-width="5" d="M311.761 275.855c0 53.376-43.27 96.645-96.646 96.645s-96.645-43.269-96.645-96.645 89.616-211.323 96.645-219.23c7.468 7.468 96.646 165.854 96.646 219.23" class="primary"/><path fill="#4AB3FC" d="M311.761 275.855c0 53.376-43.27 96.645-96.646 96.645s-96.645-43.269-96.645-96.645 89.616-211.323 96.645-219.23c7.468 7.468 96.646 165.854 96.646 219.23" class="primary"/></g><g opacity=".5" style="mix-blend-mode:multiply;display:block"><g mask="url(#l)" opacity="1"><path fill="none" stroke="#4AB3FC" stroke-linecap="round" stroke-linejoin="round" stroke-width="5" d="M311.761 275.855c0 53.376-43.27 96.645-96.646 96.645s-96.645-43.269-96.645-96.645 89.616-211.323 96.645-219.23c7.468 7.468 96.646 165.854 96.646 219.23" class="primary"/><path fill="#4AB3FC" d="M311.761 275.855c0 53.376-43.27 96.645-96.646 96.645s-96.645-43.269-96.645-96.645 89.616-211.323 96.645-219.23c7.468 7.468 96.646 165.854 96.646 219.23" class="primary"/></g></g><path fill="none" stroke="#EBE6EE" stroke-linecap="round" stroke-linejoin="round" stroke-width="7" d="M-54.241 111.589c0 38.123-30.905 69.027-69.028 69.027" class="secondary" style="display:block" transform="translate(340 165)"/></g></g></svg>