<svg xmlns="http://www.w3.org/2000/svg" xmlns:xlink="http://www.w3.org/1999/xlink" viewBox="0 0 430 430" width="430" height="430" preserveAspectRatio="xMidYMid meet" style="width: 100%; height: 100%; transform: translate3d(0px, 0px, 0px); content-visibility: visible;"><defs><clipPath id="__lottie_element_7"><rect width="430" height="430" x="0" y="0"/></clipPath><clipPath id="__lottie_element_9"><path d="M0,0 L430,0 L430,430 L0,430z"/></clipPath><clipPath id="__lottie_element_411"><path d="M0,0 L430,0 L430,430 L0,430z"/></clipPath><g id="__lottie_element_458"><g transform="matrix(-0.11161975562572479,1.0895450115203857,-1.0895450115203857,-0.11161975562572479,240.91305541992188,232.0914306640625)" opacity="1" style="display: block;"><g opacity="1" transform="matrix(1,0,0,1,0,0)"><path fill="rgb(58,51,71)" fill-opacity="1" d=" M7.562723636627197,39.236507415771484 C8.648723602294922,36.81950759887695 9.211723327636719,34.20075988769531 9.215723037719727,31.550758361816406 C9.215723037719727,30.11975860595703 9.05172348022461,28.693758010864258 8.725723266601562,27.300758361816406 C8.725723266601562,27.300758361816406 -5.268276691436768,-48.50924301147461 -5.268276691436768,-48.50924301147461 C-5.410276412963867,-49.18224334716797 -5.780276775360107,-49.785491943359375 -6.314276695251465,-50.2184944152832 C-6.848276615142822,-50.651493072509766 -7.5152764320373535,-50.888240814208984 -8.203276634216309,-50.888240814208984 C-8.891276359558105,-50.888240814208984 -9.558276176452637,-50.651493072509766 -10.092276573181152,-50.2184944152832 C-10.626276969909668,-49.785491943359375 -10.99627685546875,-49.18224334716797 -11.138277053833008,-48.50924301147461 C-11.138277053833008,-48.50924301147461 -27.944276809692383,27.300758361816406 -27.944276809692383,27.300758361816406 C-28.539276123046875,29.88275909423828 -28.581275939941406,32.56075668334961 -28.069276809692383,35.16075897216797 C-27.557275772094727,37.76075744628906 -26.502277374267578,40.22275924682617 -24.973276138305664,42.386756896972656 C-23.444276809692383,44.550758361816406 -21.47427749633789,46.36750793457031 -19.194276809692383,47.717506408691406 C-16.914276123046875,49.067508697509766 -14.376276969909668,49.92075729370117 -11.743276596069336,50.22175979614258 C-9.110276222229004,50.52275848388672 -6.444276809692383,50.2657585144043 -3.91827654838562,49.464759826660156 C-1.392276644706726,48.66375732421875 0.9367234110832214,47.339508056640625 2.9147233963012695,45.576507568359375 C4.892723560333252,43.813507080078125 6.4767231941223145,41.653507232666016 7.562723636627197,39.236507415771484z"/></g></g></g><filter id="__lottie_element_461" filterUnits="objectBoundingBox" x="0%" y="0%" width="100%" height="100%"><feComponentTransfer in="SourceGraphic"><feFuncA type="table" tableValues="1.0 0.0"/></feComponentTransfer></filter><mask id="__lottie_element_458_2" mask-type="alpha"><g filter="url(#__lottie_element_461)"><rect width="430" height="430" x="0" y="0" fill="#ffffff" opacity="0"/><use xmlns:ns1="http://www.w3.org/1999/xlink" ns1:href="#__lottie_element_458"/></g></mask></defs><g clip-path="url(#__lottie_element_7)"><g clip-path="url(#__lottie_element_9)" transform="matrix(1,0,0,1,0,0)" opacity="1" style="display: none;"><g transform="matrix(0.9712655544281006,0.23799844086170197,-0.23799844086170197,0.9712655544281006,226.8454132080078,196.66336059570312)" opacity="1" style="display: block;"><g opacity="1" transform="matrix(1,0,0,1,0,0)"><path class="quaternary" fill="rgb(235,230,239)" fill-opacity="1" d=" M0,160.1199951171875 C88.43199920654297,160.1199951171875 160.1199951171875,88.43199920654297 160.1199951171875,0 C160.1199951171875,-88.43199920654297 88.43199920654297,-160.1199951171875 0,-160.1199951171875 C-88.43199920654297,-160.1199951171875 -160.1199951171875,-88.43199920654297 -160.1199951171875,0 C-160.1199951171875,88.43199920654297 -88.43199920654297,160.1199951171875 0,160.1199951171875z"/></g></g><g transform="matrix(0.9712655544281006,0.23799844086170197,-0.23799844086170197,0.9712655544281006,180.15707397460938,186.24217224121094)" opacity="0.5" style="mix-blend-mode: multiply; display: block;"><g opacity="1" transform="matrix(1,0,0,1,0,0)"><path class="quaternary" fill="rgb(235,230,239)" fill-opacity="1" d=" M46.40299987792969,158.92300415039062 C69.03800201416016,159.14199829101562 91.46199798583984,154.55999755859375 112.1969985961914,145.47999572753906 C112.1969985961914,145.47999572753906 112.1969985961914,145.47999572753906 112.1969985961914,145.47999572753906 C73.62799835205078,152.2480010986328 33.91600036621094,144.6540069580078 0.5669999718666077,124.13099670410156 C-32.78200149536133,103.60800170898438 -57.45800018310547,71.5790023803711 -68.7969970703125,34.0989990234375 C-80.13600158691406,-3.38100004196167 -77.35099792480469,-43.71699905395508 -60.970001220703125,-79.28399658203125 C-44.5890007019043,-114.85099792480469 -15.746000289916992,-143.18499755859375 20.10700035095215,-158.92999267578125 C-2.184000015258789,-154.99400329589844 -23.38800048828125,-146.3780059814453 -42.10599899291992,-133.6490020751953 C-60.82400131225586,-120.91999816894531 -76.63099670410156,-104.36699676513672 -88.48400115966797,-85.08300018310547 C-100.33699798583984,-65.79900360107422 -107.96800231933594,-44.22100067138672 -110.87300109863281,-21.77199935913086 C-113.77799987792969,0.6769999861717224 -111.88999938964844,23.48699951171875 -105.33599853515625,45.15299987792969 C-98.78199768066406,66.81900024414062 -87.70800018310547,86.85099792480469 -72.84700012207031,103.92500305175781 C-57.986000061035156,120.9990005493164 -39.67399978637695,134.72900390625 -19.118999481201172,144.20899963378906 C1.4359999895095825,153.68899536132812 23.76799964904785,158.70399475097656 46.40299987792969,158.92300415039062z"/></g></g><g transform="matrix(0.9712655544281006,0.23799844086170197,-0.23799844086170197,0.9712655544281006,204.39881896972656,288.26318359375)" opacity="1" style="display: block;"><g opacity="1" transform="matrix(1,0,0,1,0,0)"><path class="tertiary" fill="rgb(100,110,120)" fill-opacity="1" d=" M50.25,-20 C50.25,-20 -50.25,-20 -50.25,-20 C-56.87699890136719,-20 -62.25,-14.626999855041504 -62.25,-8 C-62.25,-8 -62.25,8 -62.25,8 C-62.25,14.626999855041504 -56.87699890136719,20 -50.25,20 C-50.25,20 50.25,20 50.25,20 C56.87699890136719,20 62.25,14.626999855041504 62.25,8 C62.25,8 62.25,-8 62.25,-8 C62.25,-14.626999855041504 56.87699890136719,-20 50.25,-20z"/></g></g><g transform="matrix(0.9712655544281006,0.23799844086170197,-0.23799844086170197,0.9712655544281006,43.440643310546875,-105.79774475097656)" opacity="1" style="display: block;"><g opacity="1" transform="matrix(1,0,0,1,0,0)"><path stroke-linecap="round" stroke-linejoin="round" fill-opacity="0" class="primary" stroke="rgb(18,19,49)" stroke-opacity="1" stroke-width="7" d=" M130.01499938964844,250 C130.01499938964844,250 89.98500061035156,250 89.98500061035156,250"/></g><g opacity="1" transform="matrix(1,0,0,1,250,250)"><path stroke-linecap="round" stroke-linejoin="round" fill-opacity="0" class="primary" stroke="rgb(18,19,49)" stroke-opacity="1" stroke-width="7" d=" M-160.11900329589844,0 C-160.11900329589844,88.43099975585938 -88.43099975585938,160.11900329589844 0,160.11900329589844 C88.43099975585938,160.11900329589844 160.11900329589844,88.43099975585938 160.11900329589844,0 C160.11900329589844,-88.43099975585938 88.43099975585938,-160.11900329589844 0,-160.11900329589844 C-88.43099975585938,-160.11900329589844 -160.11900329589844,-88.43099975585938 -160.11900329589844,0z"/></g><g opacity="1" transform="matrix(1,0,0,1,250,109.89600372314453)"><path stroke-linecap="round" stroke-linejoin="round" fill-opacity="0" class="primary" stroke="rgb(18,19,49)" stroke-opacity="1" stroke-width="7" d=" M0,20.014999389648438 C0,20.014999389648438 0,-20.014999389648438 0,-20.014999389648438"/></g><g opacity="1" transform="matrix(1,0,0,1,179.947998046875,128.66600036621094)"><path stroke-linecap="round" stroke-linejoin="round" fill-opacity="0" class="primary" stroke="rgb(18,19,49)" stroke-opacity="1" stroke-width="7" d=" M10.006999969482422,17.33300018310547 C10.006999969482422,17.33300018310547 -10.006999969482422,-17.33300018310547 -10.006999969482422,-17.33300018310547"/></g><g opacity="1" transform="matrix(1,0,0,1,128.66600036621094,179.947998046875)"><path stroke-linecap="round" stroke-linejoin="round" fill-opacity="0" class="primary" stroke="rgb(18,19,49)" stroke-opacity="1" stroke-width="7" d=" M17.33300018310547,10.006999969482422 C17.33300018310547,10.006999969482422 -17.33300018310547,-10.006999969482422 -17.33300018310547,-10.006999969482422"/></g><g opacity="1" transform="matrix(1,0,0,1,128.66600036621094,320.052001953125)"><path stroke-linecap="round" stroke-linejoin="round" fill-opacity="0" class="primary" stroke="rgb(18,19,49)" stroke-opacity="1" stroke-width="7" d=" M17.33300018310547,-10.006999969482422 C17.33300018310547,-10.006999969482422 -17.33300018310547,10.006999969482422 -17.33300018310547,10.006999969482422"/></g><g opacity="1" transform="matrix(1,0,0,1,371.3340148925781,320.052001953125)"><path stroke-linecap="round" stroke-linejoin="round" fill-opacity="0" class="primary" stroke="rgb(18,19,49)" stroke-opacity="1" stroke-width="7" d=" M-17.33300018310547,-10.006999969482422 C-17.33300018310547,-10.006999969482422 17.33300018310547,10.006999969482422 17.33300018310547,10.006999969482422"/></g><g opacity="1" transform="matrix(1,0,0,1,390.10400390625,250)"><path stroke-linecap="round" stroke-linejoin="round" fill-opacity="0" class="primary" stroke="rgb(18,19,49)" stroke-opacity="1" stroke-width="7" d=" M-20.014999389648438,0 C-20.014999389648438,0 20.014999389648438,0 20.014999389648438,0"/></g><g opacity="1" transform="matrix(1,0,0,1,371.3340148925781,179.947998046875)"><path stroke-linecap="round" stroke-linejoin="round" fill-opacity="0" class="primary" stroke="rgb(18,19,49)" stroke-opacity="1" stroke-width="7" d=" M-17.33300018310547,10.006999969482422 C-17.33300018310547,10.006999969482422 17.33300018310547,-10.006999969482422 17.33300018310547,-10.006999969482422"/></g><g opacity="1" transform="matrix(1,0,0,1,320.052001953125,128.66600036621094)"><path stroke-linecap="round" stroke-linejoin="round" fill-opacity="0" class="primary" stroke="rgb(18,19,49)" stroke-opacity="1" stroke-width="7" d=" M-10.006999969482422,17.33300018310547 C-10.006999969482422,17.33300018310547 10.006999969482422,-17.33300018310547 10.006999969482422,-17.33300018310547"/></g><g opacity="1" transform="matrix(1,0,0,1,250,344.30999755859375)"><path stroke-linecap="round" stroke-linejoin="round" fill-opacity="0" class="primary" stroke="rgb(18,19,49)" stroke-opacity="1" stroke-width="7" d=" M50.25,20 C50.25,20 -50.25,20 -50.25,20 C-56.849998474121094,20 -62.25,14.600000381469727 -62.25,8 C-62.25,8 -62.25,-8 -62.25,-8 C-62.25,-14.600000381469727 -56.849998474121094,-20 -50.25,-20 C-50.25,-20 50.25,-20 50.25,-20 C56.849998474121094,-20 62.25,-14.600000381469727 62.25,-8 C62.25,-8 62.25,8 62.25,8 C62.25,14.600000381469727 56.849998474121094,20 50.25,20z"/></g></g><g transform="matrix(0.5452095866203308,0.8382998108863831,-0.8382998108863831,0.5452095866203308,250.07827758789062,186.8831787109375)" opacity="1" style="display: block;"><g opacity="1" transform="matrix(1,0,0,1,0,0)"><path class="secondary" fill="rgb(58,51,71)" fill-opacity="1" d=" M17.16699981689453,37.757999420166016 C18.253000259399414,35.340999603271484 18.81599998474121,32.722999572753906 18.81999969482422,30.072999954223633 C18.81999969482422,28.642000198364258 18.6560001373291,27.215999603271484 18.329999923706055,25.822999954223633 C18.329999923706055,25.822999954223633 2.930000066757202,-46.48699951171875 2.930000066757202,-46.48699951171875 C2.7880001068115234,-47.15999984741211 2.4179999828338623,-47.763999938964844 1.8839999437332153,-48.196998596191406 C1.350000023841858,-48.630001068115234 0.6830000281333923,-48.86600112915039 -0.004999999888241291,-48.86600112915039 C-0.6930000185966492,-48.86600112915039 -1.3600000143051147,-48.630001068115234 -1.8940000534057617,-48.196998596191406 C-2.427999973297119,-47.763999938964844 -2.7980000972747803,-47.15999984741211 -2.940000057220459,-46.48699951171875 C-2.940000057220459,-46.48699951171875 -18.34000015258789,25.822999954223633 -18.34000015258789,25.822999954223633 C-18.934999465942383,28.405000686645508 -18.976999282836914,31.08300018310547 -18.46500015258789,33.68299865722656 C-17.952999114990234,36.28300094604492 -16.89699935913086,38.744998931884766 -15.368000030517578,40.909000396728516 C-13.83899974822998,43.073001861572266 -11.869999885559082,44.888999938964844 -9.59000015258789,46.23899841308594 C-7.309999942779541,47.5890007019043 -4.770999908447266,48.44300079345703 -2.138000011444092,48.74399948120117 C0.4950000047683716,49.04499816894531 3.1600000858306885,48.78799819946289 5.685999870300293,47.98699951171875 C8.211999893188477,47.18600082397461 10.541000366210938,45.861000061035156 12.519000053405762,44.097999572753906 C14.496999740600586,42.334999084472656 16.08099937438965,40.17499923706055 17.16699981689453,37.757999420166016z"/></g></g><g transform="matrix(0.5452095866203308,0.8382998108863831,-0.8382998108863831,0.5452095866203308,247.84896850585938,179.03329467773438)" opacity="0.5" style="mix-blend-mode: multiply; display: block;"><g opacity="1" transform="matrix(1,0,0,1,0,0)"><path class="secondary" fill="rgb(58,51,71)" fill-opacity="1" d=" M-5.585999965667725,42.124000549316406 C-5.5980000495910645,40.52399826049805 -5.429999828338623,38.926998138427734 -5.085999965667725,37.36399841308594 C-5.085999965667725,37.36399841308594 11.043999671936035,-42.44599914550781 11.043999671936035,-42.44599914550781 C11.043999671936035,-42.44599914550781 10.723999977111816,-43.965999603271484 10.723999977111816,-43.965999603271484 C10.581999778747559,-44.638999938964844 10.211999893188477,-45.242000579833984 9.678000450134277,-45.67499923706055 C9.144000053405762,-46.108001708984375 8.47700023651123,-46.34400177001953 7.789000034332275,-46.34400177001953 C7.10099983215332,-46.34400177001953 6.434000015258789,-46.108001708984375 5.900000095367432,-45.67499923706055 C5.366000175476074,-45.242000579833984 4.995999813079834,-44.638999938964844 4.854000091552734,-43.965999603271484 C4.854000091552734,-43.965999603271484 -10.545999526977539,28.3439998626709 -10.545999526977539,28.3439998626709 C-11.300000190734863,31.55699920654297 -11.196000099182129,34.9119987487793 -10.243000030517578,38.071998596191406 C-9.289999961853027,41.231998443603516 -7.520999908447266,44.08399963378906 -5.116000175476074,46.34400177001953 C-5.410999774932861,44.95600128173828 -5.567999839782715,43.542999267578125 -5.585999965667725,42.124000549316406z"/></g></g><g transform="matrix(0.5452095866203308,0.8382998108863831,-0.8382998108863831,0.5452095866203308,254.87445068359375,183.61953735351562)" opacity="1" style="display: block;"><g opacity="1" transform="matrix(1,0,0,1,0,0)"><path stroke-linecap="round" stroke-linejoin="round" fill-opacity="0" class="primary" stroke="rgb(18,19,49)" stroke-opacity="1" stroke-width="7" d=" M18.825000762939453,35.755001068115234 C18.825000762939453,46.154998779296875 10.395000457763672,54.58599853515625 -0.004999999888241291,54.58599853515625 C-10.404999732971191,54.58599853515625 -18.825000762939453,46.154998779296875 -18.825000762939453,35.755001068115234 C-18.825000762939453,34.29499816894531 -18.655000686645508,32.875 -18.334999084472656,31.5049991607666 C-18.334999084472656,31.5049991607666 -0.004999999888241291,-54.58599853515625 -0.004999999888241291,-54.58599853515625 C-0.004999999888241291,-54.58599853515625 18.334999084472656,31.5049991607666 18.334999084472656,31.5049991607666 C18.655000686645508,32.875 18.825000762939453,34.29499816894531 18.825000762939453,35.755001068115234z"/></g></g></g><g clip-path="url(#__lottie_element_411)" transform="matrix(1,0,0,1,0,0)" opacity="1" style="display: block;"><g transform="matrix(1.0952476263046265,0,0,1.0952476263046265,215.13140869140625,215.13140869140625)" opacity="1" style="display: block;"><g opacity="1" transform="matrix(1,0,0,1,0,0)"><path class="quaternary" fill="rgb(235,230,239)" fill-opacity="1" d=" M0,160.1199951171875 C88.43199920654297,160.1199951171875 160.1199951171875,88.43199920654297 160.1199951171875,0 C160.1199951171875,-88.43199920654297 88.43199920654297,-160.1199951171875 0,-160.1199951171875 C-88.43199920654297,-160.1199951171875 -160.1199951171875,-88.43199920654297 -160.1199951171875,0 C-160.1199951171875,88.43199920654297 -88.43199920654297,160.1199951171875 0,160.1199951171875z"/></g></g><g transform="matrix(1.0952476263046265,0,0,1.0952476263046265,162.74900817871094,216.21571350097656)" opacity="0.5" style="mix-blend-mode: multiply; display: block;"><g opacity="1" transform="matrix(1,0,0,1,0,0)"><path class="quaternary" fill="rgb(235,230,239)" fill-opacity="1" d=" M46.40299987792969,158.92300415039062 C69.03800201416016,159.14199829101562 91.46199798583984,154.55999755859375 112.1969985961914,145.47999572753906 C112.1969985961914,145.47999572753906 112.1969985961914,145.47999572753906 112.1969985961914,145.47999572753906 C73.62799835205078,152.2480010986328 33.91600036621094,144.6540069580078 0.5669999718666077,124.13099670410156 C-32.78200149536133,103.60800170898438 -57.45800018310547,71.5790023803711 -68.7969970703125,34.0989990234375 C-80.13600158691406,-3.38100004196167 -77.35099792480469,-43.71699905395508 -60.970001220703125,-79.28399658203125 C-44.5890007019043,-114.85099792480469 -15.746000289916992,-143.18499755859375 20.10700035095215,-158.92999267578125 C-2.184000015258789,-154.99400329589844 -23.38800048828125,-146.3780059814453 -42.10599899291992,-133.6490020751953 C-60.82400131225586,-120.91999816894531 -76.63099670410156,-104.36699676513672 -88.48400115966797,-85.08300018310547 C-100.33699798583984,-65.79900360107422 -107.96800231933594,-44.22100067138672 -110.87300109863281,-21.77199935913086 C-113.77799987792969,0.6769999861717224 -111.88999938964844,23.48699951171875 -105.33599853515625,45.15299987792969 C-98.78199768066406,66.81900024414062 -87.70800018310547,86.85099792480469 -72.84700012207031,103.92500305175781 C-57.986000061035156,120.9990005493164 -39.67399978637695,134.72900390625 -19.118999481201172,144.20899963378906 C1.4359999895095825,153.68899536132812 23.76799964904785,158.70399475097656 46.40299987792969,158.92300415039062z"/></g></g><g transform="matrix(1.0952476263046265,0,0,1.0952476263046265,-58.811920166015625,-58.811920166015625)" opacity="1" style="display: block;"><g opacity="1" transform="matrix(1,0,0,1,0,0)"><path stroke-linecap="round" stroke-linejoin="round" fill-opacity="0" class="primary" stroke="rgb(18,19,49)" stroke-opacity="1" stroke-width="7" d=" M111.33,330.06 C111.33,330.06 123.23,323.19 133.08,317.5 M388.67,330.06 C388.67,330.06 376.77,323.19 366.92,317.5 M89.98500061035156,250 C89.98500061035156,250 110.822998046875,250 122.43000030517578,250 M410.12,250 C410.12,250 389.28,250 377.67,250 M111.33,169.94 C111.33,169.94 133.61,182.8 142.45,187.9 M388.67,169.94 C388.67,169.94 366.39,182.8 357.55,187.9 M169.94,111.33 C169.94,111.33 184.62,136.76 188.84,144.06 M330.06,111.33 C330.06,111.33 315.38,136.76 311.16,144.06 M250,89.88 C250,89.88 250,122.03 250,128.71"/><g opacity="1" transform="matrix(1,0,0,1,128.66600036621094,320.052001953125)"/><g opacity="1" transform="matrix(1,0,0,1,371.3340148925781,320.052001953125)"/><g opacity="1" transform="matrix(1,0,0,1,0,0)"/><g opacity="1" transform="matrix(1,0,0,1,390.10400390625,250)"/><g opacity="1" transform="matrix(1,0,0,1,128.66600036621094,179.947998046875)"/><g opacity="1" transform="matrix(1,0,0,1,371.3340148925781,179.947998046875)"/><g opacity="1" transform="matrix(1,0,0,1,179.947998046875,128.66600036621094)"/><g opacity="1" transform="matrix(1,0,0,1,320.052001953125,128.66600036621094)"/><g opacity="1" transform="matrix(1,0,0,1,250,109.89600372314453)"/></g><g opacity="1" transform="matrix(1,0,0,1,250,344.30999755859375)"><path class="tertiary" fill="rgb(100,110,120)" fill-opacity="1" d=" M48.44722366333008,19.99616813659668 C48.44722366333008,19.99616813659668 -48.44722366333008,20.005659103393555 -48.44722366333008,20.005659103393555 C-55.04722595214844,20.005659103393555 -60.44722366333008,14.605659484863281 -60.44722366333008,8.005659103393555 C-60.44722366333008,8.005659103393555 -60.44722366333008,-7.994304656982422 -60.44722366333008,-7.994304656982422 C-60.44722366333008,-14.594305038452148 -55.04722595214844,-19.994304656982422 -48.44722366333008,-19.994304656982422 C-48.44722366333008,-19.994304656982422 48.44722366333008,-20.00379753112793 48.44722366333008,-20.00379753112793 C55.04722595214844,-20.00379753112793 60.44722366333008,-14.60379695892334 60.44722366333008,-8.003796577453613 C60.44722366333008,-8.003796577453613 60.44722366333008,7.996167182922363 60.44722366333008,7.996167182922363 C60.44722366333008,14.59616756439209 55.04722595214844,19.99616813659668 48.44722366333008,19.99616813659668z"/><path stroke-linecap="round" stroke-linejoin="round" fill-opacity="0" class="primary" stroke="rgb(18,19,49)" stroke-opacity="1" stroke-width="7" d=" M48.44722366333008,19.99616813659668 C48.44722366333008,19.99616813659668 -48.44722366333008,20.005659103393555 -48.44722366333008,20.005659103393555 C-55.04722595214844,20.005659103393555 -60.44722366333008,14.605659484863281 -60.44722366333008,8.005659103393555 C-60.44722366333008,8.005659103393555 -60.44722366333008,-7.994304656982422 -60.44722366333008,-7.994304656982422 C-60.44722366333008,-14.594305038452148 -55.04722595214844,-19.994304656982422 -48.44722366333008,-19.994304656982422 C-48.44722366333008,-19.994304656982422 48.44722366333008,-20.00379753112793 48.44722366333008,-20.00379753112793 C55.04722595214844,-20.00379753112793 60.44722366333008,-14.60379695892334 60.44722366333008,-8.003796577453613 C60.44722366333008,-8.003796577453613 60.44722366333008,7.996167182922363 60.44722366333008,7.996167182922363 C60.44722366333008,14.59616756439209 55.04722595214844,19.99616813659668 48.44722366333008,19.99616813659668z"/></g><g opacity="1" transform="matrix(1,0,0,1,250,250)"><path stroke-linecap="round" stroke-linejoin="round" fill-opacity="0" class="primary" stroke="rgb(18,19,49)" stroke-opacity="1" stroke-width="6.522269167835737" d=" M-160.11900329589844,0 C-160.11900329589844,88.43099975585938 -88.43099975585938,160.11900329589844 0,160.11900329589844 C88.43099975585938,160.11900329589844 160.11900329589844,88.43099975585938 160.11900329589844,0 C160.11900329589844,-88.43099975585938 88.43099975585938,-160.11900329589844 0,-160.11900329589844 C-88.43099975585938,-160.11900329589844 -160.11900329589844,-88.43099975585938 -160.11900329589844,0z"/></g></g><g transform="matrix(-0.11161975562572479,1.0895450115203857,-1.0895450115203857,-0.11161975562572479,247.05841064453125,225.83985900878906)" opacity="1" style="display: block;"><g opacity="1" transform="matrix(1,0,0,1,0,0)"><path class="secondary" fill="rgb(58,51,71)" fill-opacity="1" d=" M17.16699981689453,37.757999420166016 C18.253000259399414,35.340999603271484 18.81599998474121,32.722999572753906 18.81999969482422,30.072999954223633 C18.81999969482422,28.642000198364258 18.6560001373291,27.215999603271484 18.329999923706055,25.822999954223633 C18.329999923706055,25.822999954223633 2.930000066757202,-46.48699951171875 2.930000066757202,-46.48699951171875 C2.7880001068115234,-47.15999984741211 2.4179999828338623,-47.763999938964844 1.8839999437332153,-48.196998596191406 C1.350000023841858,-48.630001068115234 0.6830000281333923,-48.86600112915039 -0.004999999888241291,-48.86600112915039 C-0.6930000185966492,-48.86600112915039 -1.3600000143051147,-48.630001068115234 -1.8940000534057617,-48.196998596191406 C-2.427999973297119,-47.763999938964844 -2.7980000972747803,-47.15999984741211 -2.940000057220459,-46.48699951171875 C-2.940000057220459,-46.48699951171875 -18.34000015258789,25.822999954223633 -18.34000015258789,25.822999954223633 C-18.934999465942383,28.405000686645508 -18.976999282836914,31.08300018310547 -18.46500015258789,33.68299865722656 C-17.952999114990234,36.28300094604492 -16.89699935913086,38.744998931884766 -15.368000030517578,40.909000396728516 C-13.83899974822998,43.073001861572266 -11.869999885559082,44.888999938964844 -9.59000015258789,46.23899841308594 C-7.309999942779541,47.5890007019043 -4.770999908447266,48.44300079345703 -2.138000011444092,48.74399948120117 C0.4950000047683716,49.04499816894531 3.1600000858306885,48.78799819946289 5.685999870300293,47.98699951171875 C8.211999893188477,47.18600082397461 10.541000366210938,45.861000061035156 12.519000053405762,44.097999572753906 C14.496999740600586,42.334999084472656 16.08099937438965,40.17499923706055 17.16699981689453,37.757999420166016z"/></g></g><g mask="url(#__lottie_element_458_2)" style="mix-blend-mode: multiply; display: block;"><g transform="matrix(-0.11161975562572479,1.0895450115203857,-1.0895450115203857,-0.11161975562572479,247.05841064453125,225.83985900878906)" opacity="0.5"><g opacity="1" transform="matrix(1,0,0,1,0,0)"><path class="secondary" fill="rgb(58,51,71)" fill-opacity="1" d=" M17.16699981689453,37.757999420166016 C18.253000259399414,35.340999603271484 18.81599998474121,32.722999572753906 18.81999969482422,30.072999954223633 C18.81999969482422,28.642000198364258 18.6560001373291,27.215999603271484 18.329999923706055,25.822999954223633 C18.329999923706055,25.822999954223633 2.930000066757202,-46.48699951171875 2.930000066757202,-46.48699951171875 C2.7880001068115234,-47.15999984741211 2.4179999828338623,-47.763999938964844 1.8839999437332153,-48.196998596191406 C1.350000023841858,-48.630001068115234 0.6830000281333923,-48.86600112915039 -0.004999999888241291,-48.86600112915039 C-0.6930000185966492,-48.86600112915039 -1.3600000143051147,-48.630001068115234 -1.8940000534057617,-48.196998596191406 C-2.427999973297119,-47.763999938964844 -2.7980000972747803,-47.15999984741211 -2.940000057220459,-46.48699951171875 C-2.940000057220459,-46.48699951171875 -18.34000015258789,25.822999954223633 -18.34000015258789,25.822999954223633 C-18.934999465942383,28.405000686645508 -18.976999282836914,31.08300018310547 -18.46500015258789,33.68299865722656 C-17.952999114990234,36.28300094604492 -16.89699935913086,38.744998931884766 -15.368000030517578,40.909000396728516 C-13.83899974822998,43.073001861572266 -11.869999885559082,44.888999938964844 -9.59000015258789,46.23899841308594 C-7.309999942779541,47.5890007019043 -4.770999908447266,48.44300079345703 -2.138000011444092,48.74399948120117 C0.4950000047683716,49.04499816894531 3.1600000858306885,48.78799819946289 5.685999870300293,47.98699951171875 C8.211999893188477,47.18600082397461 10.541000366210938,45.861000061035156 12.519000053405762,44.097999572753906 C14.496999740600586,42.334999084472656 16.08099937438965,40.17499923706055 17.16699981689453,37.757999420166016z"/></g></g></g><g transform="matrix(-0.11161975562572479,1.0895450115203857,-1.0895450115203857,-0.11161975562572479,253.3912811279297,226.3554229736328)" opacity="1" style="display: block;"><g opacity="1" transform="matrix(1,0,0,1,0,0)"><path stroke-linecap="round" stroke-linejoin="round" fill-opacity="0" class="primary" stroke="rgb(18,19,49)" stroke-opacity="1" stroke-width="6.523761927654669" d=" M18.825000762939453,35.755001068115234 C18.825000762939453,46.154998779296875 10.395000457763672,54.58599853515625 -0.004999999888241291,54.58599853515625 C-10.404999732971191,54.58599853515625 -18.825000762939453,46.154998779296875 -18.825000762939453,35.755001068115234 C-18.825000762939453,34.29499816894531 -18.655000686645508,32.875 -18.334999084472656,31.5049991607666 C-18.334999084472656,31.5049991607666 -0.004999999888241291,-54.58599853515625 -0.004999999888241291,-54.58599853515625 C-0.004999999888241291,-54.58599853515625 18.334999084472656,31.5049991607666 18.334999084472656,31.5049991607666 C18.655000686645508,32.875 18.825000762939453,34.29499816894531 18.825000762939453,35.755001068115234z"/></g></g></g></g></svg>