<svg xmlns="http://www.w3.org/2000/svg" xmlns:xlink="http://www.w3.org/1999/xlink" viewBox="0 0 430 430" width="430" height="430" preserveAspectRatio="xMidYMid meet" style="width: 100%; height: 100%; transform: translate3d(0px, 0px, 0px); content-visibility: visible;"><defs><clipPath id="__lottie_element_3366"><rect width="430" height="430" x="0" y="0"/></clipPath><clipPath id="__lottie_element_3368"><path d="M0,0 L430,0 L430,430 L0,430z"/></clipPath></defs><g clip-path="url(#__lottie_element_3366)"><g clip-path="url(#__lottie_element_3368)" transform="matrix(1,0,0,1,0,0)" opacity="1" style="display: block;"><g transform="matrix(1.0000053644180298,0,0,1.0000053644180298,215,215.27999877929688)" opacity="1" style="display: block;"><g opacity="1" transform="matrix(1,0,0,1,0,0)"><path class="tertiary" fill="rgb(255,199,56)" fill-opacity="1" d=" M0,86.01000213623047 C47.50199890136719,86.01000213623047 86.01000213623047,47.50199890136719 86.01000213623047,0 C86.01000213623047,-47.50199890136719 47.50199890136719,-86.01000213623047 0,-86.01000213623047 C-47.50199890136719,-86.01000213623047 -86.01000213623047,-47.50199890136719 -86.01000213623047,0 C-86.01000213623047,47.50199890136719 -47.50199890136719,86.01000213623047 0,86.01000213623047z"/></g></g><g transform="matrix(1.0000053644180298,0,0,1.0000053644180298,188.06886291503906,215.47799682617188)" opacity="0.5" style="mix-blend-mode: multiply; display: block;"><g opacity="1" transform="matrix(1,0,0,1,0,0)"><path class="tertiary" fill="rgb(255,199,56)" fill-opacity="1" d=" M-4.14900016784668,60.301998138427734 C11.258000373840332,73.03600311279297 30.621999740600586,80.00299835205078 50.611000061035156,80.00199890136719 C53.49100112915039,79.99500274658203 56.30400085449219,79.85900115966797 59.05099868774414,79.59200286865234 C47.60599899291992,84.1969985961914 35.30400085449219,86.28500366210938 22.981000900268555,85.71600341796875 C10.657999992370605,85.14700317382812 -1.3990000486373901,81.93299865722656 -12.371000289916992,76.29299926757812 C-23.343000411987305,70.65299987792969 -32.972999572753906,62.71699905395508 -40.606998443603516,53.0260009765625 C-48.24100112915039,43.334999084472656 -53.70100021362305,32.1150016784668 -56.61600112915039,20.128000259399414 C-59.53099822998047,8.140999794006348 -59.832000732421875,-4.333000183105469 -57.5,-16.44700050354004 C-55.167999267578125,-28.56100082397461 -50.257999420166016,-40.03200149536133 -43.10100173950195,-50.08100128173828 C-35.944000244140625,-60.130001068115234 -26.709999084472656,-68.52200317382812 -16.02400016784668,-74.68599700927734 C-5.3379998207092285,-80.8499984741211 6.548999786376953,-84.64299774169922 18.83099937438965,-85.80799865722656 C0.2590000033378601,-78.41799926757812 -15.156999588012695,-64.78600311279297 -24.763999938964844,-47.25699996948242 C-34.37099838256836,-29.72800064086914 -37.569000244140625,-9.399999618530273 -33.805999755859375,10.230999946594238 C-30.042999267578125,29.86199951171875 -19.555999755859375,47.56800079345703 -4.14900016784668,60.301998138427734z"/></g></g><g transform="matrix(0.000007991528036654927,-1.0000053644180298,1.0000053644180298,0.000007991528036654927,215.00099182128906,90.78133392333984)" opacity="1" style="display: block;"><g opacity="1" transform="matrix(1,0,0,1,0,0)"><path stroke-linecap="round" stroke-linejoin="round" fill-opacity="0" class="primary" stroke="rgb(156,194,244)" stroke-opacity="1" stroke-width="7" d=" M-2.559000015258789,0 C9.729000091552734,0 23.584999084472656,0 35.87300109863281,0"/></g></g><g transform="matrix(0.707110583782196,-0.707110583782196,0.707110583782196,0.707110583782196,302.8358459472656,127.16413879394531)" opacity="1" style="display: block;"><g opacity="1" transform="matrix(1,0,0,1,0,0)"><path stroke-linecap="round" stroke-linejoin="round" fill-opacity="0" class="primary" stroke="rgb(156,194,244)" stroke-opacity="1" stroke-width="7" d=" M-2.559000015258789,0 C20.55900001525879,0 49.22600173950195,0 62.560001373291016,0"/></g></g><g transform="matrix(1.0000053644180298,0.000005725883966078982,-0.000005725883966078982,1.0000053644180298,339.2186584472656,215.00071716308594)" opacity="1" style="display: block;"><g opacity="1" transform="matrix(1,0,0,1,0,0)"><path stroke-linecap="round" stroke-linejoin="round" fill-opacity="0" class="primary" stroke="rgb(156,194,244)" stroke-opacity="1" stroke-width="7" d=" M-2.559000015258789,0 C9.729000091552734,0 23.584999084472656,0 35.87300109863281,0"/></g></g><g transform="matrix(0.707109272480011,0.7071118950843811,-0.7071118950843811,0.707109272480011,302.835693359375,302.8360290527344)" opacity="1" style="display: block;"><g opacity="1" transform="matrix(1,0,0,1,0,0)"><path stroke-linecap="round" stroke-linejoin="round" fill-opacity="0" class="primary" stroke="rgb(156,194,244)" stroke-opacity="1" stroke-width="7" d=" M-2.559000015258789,0 C20.55900001525879,0 49.22600173950195,0 62.560001373291016,0"/></g></g><g transform="matrix(0,1.0000053644180298,-1.0000053644180298,0,215,339.2186584472656)" opacity="1" style="display: block;"><g opacity="1" transform="matrix(1,0,0,1,0,0)"><path stroke-linecap="round" stroke-linejoin="round" fill-opacity="0" class="primary" stroke="rgb(156,194,244)" stroke-opacity="1" stroke-width="7" d=" M-2.559000015258789,0 C9.729000091552734,0 23.584999084472656,0 35.87300109863281,0"/></g></g><g transform="matrix(-0.707110583782196,0.707110583782196,-0.707110583782196,-0.707110583782196,127.16413879394531,302.8358459472656)" opacity="1" style="display: block;"><g opacity="1" transform="matrix(1,0,0,1,0,0)"><path stroke-linecap="round" stroke-linejoin="round" fill-opacity="0" class="primary" stroke="rgb(156,194,244)" stroke-opacity="1" stroke-width="7" d=" M-2.559000015258789,0 C20.55900001525879,0 49.22600173950195,0 62.560001373291016,0"/></g></g><g transform="matrix(-1.0000053644180298,0,0,-1.0000053644180298,90.78133392333984,215)" opacity="1" style="display: block;"><g opacity="1" transform="matrix(1,0,0,1,0,0)"><path stroke-linecap="round" stroke-linejoin="round" fill-opacity="0" class="primary" stroke="rgb(156,194,244)" stroke-opacity="1" stroke-width="7" d=" M-2.559000015258789,0 C9.729000091552734,0 23.584999084472656,0 35.87300109863281,0"/></g></g><g transform="matrix(-0.707110583782196,-0.707110583782196,0.707110583782196,-0.707110583782196,127.16413879394531,127.16413879394531)" opacity="1" style="display: block;"><g opacity="1" transform="matrix(1,0,0,1,0,0)"><path stroke-linecap="round" stroke-linejoin="round" fill-opacity="0" class="primary" stroke="rgb(156,194,244)" stroke-opacity="1" stroke-width="7" d=" M-2.559000015258789,0 C20.55900001525879,0 49.22600173950195,0 62.560001373291016,0"/></g></g><g transform="matrix(1.0000053644180298,0,0,1.0000053644180298,215,215)" opacity="1" style="display: block;"><g opacity="1" transform="matrix(1,0,0,1,0,0)"><path stroke-linecap="round" stroke-linejoin="round" fill-opacity="0" class="primary" stroke="rgb(156,194,244)" stroke-opacity="1" stroke-width="7" d=" M-86,0 C-86,47.49599838256836 -47.49599838256836,86 0,86 C47.49599838256836,86 86,47.49599838256836 86,0 C86,-47.49599838256836 47.49599838256836,-86 0,-86 C-47.49599838256836,-86 -86,-47.49599838256836 -86,0z"/></g></g></g></g></svg>