<svg xmlns="http://www.w3.org/2000/svg" xmlns:xlink="http://www.w3.org/1999/xlink" viewBox="0 0 430 430" width="430" height="430" preserveAspectRatio="xMidYMid meet" style="width: 100%; height: 100%; transform: translate3d(0px, 0px, 0px); content-visibility: visible;"><defs><clipPath id="__lottie_element_784"><rect width="430" height="430" x="0" y="0"/></clipPath><clipPath id="__lottie_element_786"><path d="M0,0 L430,0 L430,430 L0,430z"/></clipPath><clipPath id="__lottie_element_1121"><path d="M0,0 L430,0 L430,430 L0,430z"/></clipPath></defs><g clip-path="url(#__lottie_element_784)"><g clip-path="url(#__lottie_element_786)" transform="matrix(1,0,0,1,0,0)" opacity="1" style="display: none;"><g transform="matrix(1,0,0,1,161.6269989013672,295)" opacity="1" style="display: block;"><g opacity="1" transform="matrix(1,0,0,1,0,0)"><path stroke-linecap="round" stroke-linejoin="round" fill-opacity="0" class="primary" stroke-dasharray=" 126 64" stroke-dashoffset="50.50800323486328" stroke="rgb(156,194,244)" stroke-opacity="1" stroke-width="10.5" d=" M105.50985717773438,0 C105.50985717773438,0 -104.47974395751953,0 -104.47974395751953,0"/></g></g><g transform="matrix(1,0,0,1,161.6269989013672,215)" opacity="1" style="display: block;"><g opacity="1" transform="matrix(1,0,0,1,0,0)"><path stroke-linecap="round" stroke-linejoin="round" fill-opacity="0" class="primary" stroke-dasharray=" 126 64" stroke-dashoffset="110.50800323486328" stroke="rgb(156,194,244)" stroke-opacity="1" stroke-width="10.5" d=" M110.7291259765625,0 C110.7291259765625,0 -100.77131652832031,0 -100.77131652832031,0"/></g></g><g transform="matrix(1,0,0,1,248.43499755859375,300.5780029296875)" opacity="1" style="display: block;"><g opacity="1" transform="matrix(1,0,0,1,0,0)"><path stroke-linecap="round" stroke-linejoin="round" fill-opacity="0" class="primary" stroke="rgb(156,194,244)" stroke-opacity="1" stroke-width="10.5" d=" M82.55899810791016,-0.8339999914169312 C78.97000122070312,-6.236999988555908 72.5469970703125,-9.767000198364258 64.63300323486328,-9.767000198364258 C50.75199890136719,-9.767000198364258 39.499000549316406,1.4859999418258667 39.499000549316406,15.366999626159668 C39.499000549316406,19.575000762939453 40.49599838256836,23.55699920654297 42.31100082397461,27.211999893188477"/></g></g><g transform="matrix(1,0,0,1,248.43499755859375,300.5780029296875)" opacity="1" style="display: none;"><g opacity="1" transform="matrix(1,0,0,1,0,0)"><path stroke-linecap="round" stroke-linejoin="round" fill-opacity="0" class="primary" stroke="rgb(156,194,244)" stroke-opacity="1" stroke-width="10.5" d=" M46.49599838256836,33.50400161743164 C47.082000732421875,34.191001892089844 47.70000076293945,34.861000061035156 48.347999572753906,35.512001037597656 C54.06100082397461,41.24700164794922 61.98699951171875,46.86000061035156 79.97799682617188,46.86000061035156 C105.85800170898438,46.86000061035156 126.83799743652344,25.8799991607666 126.83799743652344,0 C126.83799743652344,-25.8799991607666 105.85800170898438,-46.86000061035156 79.97799682617188,-46.86000061035156 C79.97799682617188,-46.86000061035156 -47.49300003051758,-46.755001068115234 -128.32899475097656,-46.68899917602539"/></g></g><g transform="matrix(1,0,0,1,248.43499755859375,300.5780029296875)" opacity="1" style="display: none;"><g opacity="1" transform="matrix(1,0,0,1,0,0)"><path stroke-linecap="round" stroke-linejoin="round" fill-opacity="0" class="primary" stroke="rgb(156,194,244)" stroke-opacity="1" stroke-width="10.5" d=" M80.4000015258789,24.569000244140625 C80.5,24.430999755859375 80.5989990234375,24.292999267578125 80.69599914550781,24.155000686645508"/></g></g><g transform="matrix(1,0,0,-1,182.93499755859375,129.0780029296875)" opacity="1" style="display: block;"><g opacity="1" transform="matrix(1,0,0,1,0,0)"><path stroke-linecap="round" stroke-linejoin="round" fill-opacity="0" class="primary" stroke="rgb(156,194,244)" stroke-opacity="1" stroke-width="10.5" d=" M82.98799896240234,-0.15700000524520874 C79.49700164794922,-5.940000057220459 72.87300109863281,-9.767000198364258 64.63300323486328,-9.767000198364258 C50.75199890136719,-9.767000198364258 39.499000549316406,1.4859999418258667 39.499000549316406,15.366999626159668 C39.499000549316406,18.584999084472656 40.082000732421875,21.67099952697754 41.16899871826172,24.579999923706055"/></g></g><g transform="matrix(1,0,0,-1,182.93499755859375,129.0780029296875)" opacity="1" style="display: none;"><g opacity="1" transform="matrix(1,0,0,1,0,0)"><path stroke-linecap="round" stroke-linejoin="round" fill-opacity="0" class="primary" stroke="rgb(156,194,244)" stroke-opacity="1" stroke-width="10.5" d=" M48.21900177001953,35.38199996948242 C48.262001037597656,35.42499923706055 48.30500030517578,35.46900177001953 48.347999572753906,35.512001037597656 C54.06100082397461,41.24700164794922 61.98699951171875,46.86000061035156 79.97799682617188,46.86000061035156 C105.85800170898438,46.86000061035156 126.83799743652344,25.8799991607666 126.83799743652344,0 C126.83799743652344,-25.8799991607666 105.85800170898438,-46.86000061035156 79.97799682617188,-46.86000061035156 C79.97799682617188,-46.86000061035156 -127.83799743652344,-46.84700012207031 -127.83799743652344,-46.84700012207031"/></g></g><g transform="matrix(1,0,0,-1,182.93499755859375,129.0780029296875)" opacity="1" style="display: none;"><g opacity="1" transform="matrix(1,0,0,1,0,0)"><path stroke-linecap="round" stroke-linejoin="round" fill-opacity="0" class="primary" stroke="rgb(156,194,244)" stroke-opacity="1" stroke-width="10.5" d=" M80.4000015258789,24.569000244140625 C80.48799896240234,24.44700050354004 80.57599639892578,24.325000762939453 80.66200256347656,24.202999114990234"/></g></g></g><g clip-path="url(#__lottie_element_1121)" transform="matrix(1,0,0,1,0,0)" opacity="1" style="display: block;"><g transform="matrix(1,0,0,1,161.6269989013672,295)" opacity="1" style="display: block;"><g opacity="1" transform="matrix(1,0,0,1,0,0)"><path stroke-linecap="round" stroke-linejoin="round" fill-opacity="0" class="primary" stroke-dasharray=" 126 64" stroke-dashoffset="782" stroke="rgb(156,194,244)" stroke-opacity="1" stroke-width="10.5" d=" M106.74600219726562,0 C106.74600219726562,0 -106.74600219726562,0 -106.74600219726562,0"/></g></g><g transform="matrix(1,0,0,1,161.6269989013672,215)" opacity="1" style="display: block;"><g opacity="1" transform="matrix(1,0,0,1,0,0)"><path stroke-linecap="round" stroke-linejoin="round" fill-opacity="0" class="primary" stroke-dasharray=" 126 64" stroke-dashoffset="842" stroke="rgb(156,194,244)" stroke-opacity="1" stroke-width="10.5" d=" M106.74600219726562,0 C106.74600219726562,0 -106.74600219726562,0 -106.74600219726562,0"/></g></g><g transform="matrix(1,0,0,1,248.43499755859375,300.5780029296875)" opacity="1" style="display: block;"><g opacity="1" transform="matrix(1,0,0,1,0,0)"><path stroke-linecap="round" stroke-linejoin="round" fill-opacity="0" class="primary" stroke="rgb(156,194,244)" stroke-opacity="1" stroke-width="10.5" d=" M46.49599838256836,33.50400161743164 C47.082000732421875,34.191001892089844 47.70000076293945,34.861000061035156 48.347999572753906,35.512001037597656 C54.06100082397461,41.24700164794922 61.98699951171875,46.86000061035156 79.97799682617188,46.86000061035156 C105.85800170898438,46.86000061035156 126.83799743652344,25.8799991607666 126.83799743652344,0 C126.83799743652344,-25.8799991607666 105.85800170898438,-46.86000061035156 79.97799682617188,-46.86000061035156 C79.97799682617188,-46.86000061035156 -47.49300003051758,-46.755001068115234 -128.32899475097656,-46.68899917602539"/></g></g><g transform="matrix(1,0,0,1,248.43499755859375,300.5780029296875)" opacity="1" style="display: none;"><g opacity="1" transform="matrix(1,0,0,1,0,0)"><path stroke-linecap="round" stroke-linejoin="round" fill-opacity="0" class="primary" stroke="rgb(156,194,244)" stroke-opacity="1" stroke-width="10.5" d=" M80.4000015258789,24.569000244140625 C80.48899841308594,24.445999145507812 80.5770034790039,24.323999404907227 80.66300201416016,24.201000213623047"/></g></g><g transform="matrix(1,0,0,-1,182.93499755859375,129.0780029296875)" opacity="1" style="display: block;"><g opacity="1" transform="matrix(1,0,0,1,0,0)"><path stroke-linecap="round" stroke-linejoin="round" fill-opacity="0" class="primary" stroke="rgb(156,194,244)" stroke-opacity="1" stroke-width="10.5" d=" M48.21900177001953,35.38199996948242 C48.262001037597656,35.42499923706055 48.30500030517578,35.46900177001953 48.347999572753906,35.512001037597656 C54.06100082397461,41.24700164794922 61.98699951171875,46.86000061035156 79.97799682617188,46.86000061035156 C105.85800170898438,46.86000061035156 126.83799743652344,25.8799991607666 126.83799743652344,0 C126.83799743652344,-25.8799991607666 105.85800170898438,-46.86000061035156 79.97799682617188,-46.86000061035156 C79.97799682617188,-46.86000061035156 -127.83799743652344,-46.84700012207031 -127.83799743652344,-46.84700012207031"/></g></g><g transform="matrix(1,0,0,-1,182.93499755859375,129.0780029296875)" opacity="1" style="display: none;"><g opacity="1" transform="matrix(1,0,0,1,0,0)"><path stroke-linecap="round" stroke-linejoin="round" fill-opacity="0" class="primary" stroke="rgb(156,194,244)" stroke-opacity="1" stroke-width="10.5" d=" M80.4000015258789,24.569000244140625 C80.47899627685547,24.461000442504883 80.55599975585938,24.351999282836914 80.63300323486328,24.243999481201172"/></g></g></g></g></svg>